{"accessors":[{"bufferView":2,"componentType":5126,"count":1593,"max":[1.1852827072143555,8.5364990234375,1.1921844482421875],"min":[-1.1872755289077759,2.642202854156494,-1.2085328102111816],"type":"VEC3"},{"bufferView":2,"byteOffset":19116,"componentType":5126,"count":1593,"max":[0.9996340870857239,0.916004478931427,0.997623085975647],"min":[-0.9997411966323853,-0.9983827471733093,-0.9998990893363953],"type":"VEC3"},{"bufferView":3,"componentType":5126,"count":1593,"max":[0.9829909801483154,0.9997896552085876,0.9675015211105347,1],"min":[-0.9860063791275024,-0.9997933506965637,-0.9883276224136353,-1],"type":"VEC4"},{"bufferView":1,"componentType":5126,"count":1593,"max":[0.8098399639129639,0.7917835712432861],"min":[0.27267539501190186,0.711369514465332],"type":"VEC2"},{"bufferView":0,"componentType":5125,"count":3072,"max":[1592],"min":[0],"type":"SCALAR"},{"bufferView":2,"byteOffset":38232,"componentType":5126,"count":272,"max":[0.21489174664020538,0.5958373546600342,0.13818764686584473],"min":[-0.21489174664020538,0.46101948618888855,0.01059093326330185],"type":"VEC3"},{"bufferView":2,"byteOffset":41496,"componentType":5126,"count":272,"max":[1,0.9992773532867432,0.9988746047019958],"min":[-1,-0.9999517798423767,-0.9924156665802002],"type":"VEC3"},{"bufferView":3,"byteOffset":25488,"componentType":5126,"count":272,"max":[1,0.9334496855735779,0.7365860342979431,1],"min":[-1,-0.6763556599617004,-0.7365943789482117,-1],"type":"VEC4"},{"bufferView":1,"byteOffset":12744,"componentType":5126,"count":272,"max":[0.7679166793823242,0.7559729814529419],"min":[0.19196902215480804,0.34580451250076294],"type":"VEC2"},{"bufferView":0,"byteOffset":12288,"componentType":5125,"count":408,"max":[271],"min":[0],"type":"SCALAR"},{"bufferView":2,"byteOffset":44760,"componentType":5126,"count":372,"max":[0.10030008107423782,0.2805469036102295,0.13116639852523804],"min":[-0.10030008107423782,0.021704435348510742,0.026693761348724365],"type":"VEC3"},{"bufferView":2,"byteOffset":49224,"componentType":5126,"count":372,"max":[1,1,1],"min":[-1,-1,-1],"type":"VEC3"},{"bufferView":3,"byteOffset":29840,"componentType":5126,"count":372,"max":[1,0,0,1],"min":[-1,0,0,-1],"type":"VEC4"},{"bufferView":1,"byteOffset":14920,"componentType":5126,"count":372,"max":[0.2826424837112427,0.4635027348995209],"min":[0.19865640997886658,0.23354822397232056],"type":"VEC2"},{"bufferView":0,"byteOffset":13920,"componentType":5125,"count":756,"max":[371],"min":[0],"type":"SCALAR"},{"bufferView":2,"byteOffset":53688,"componentType":5126,"count":496,"max":[0.10030008107423782,0.39379048347473145,0.13116639852523804],"min":[-0.10030008107423782,0.021704435348510742,0.026693761348724365],"type":"VEC3"},{"bufferView":2,"byteOffset":59640,"componentType":5126,"count":496,"max":[1,1,1],"min":[-1,-1,-1],"type":"VEC3"},{"bufferView":3,"byteOffset":35792,"componentType":5126,"count":496,"max":[1,0,0,1],"min":[-1,0,0,-1],"type":"VEC4"},{"bufferView":1,"byteOffset":17896,"componentType":5126,"count":496,"max":[0.2826424837112427,0.4635027348995209],"min":[0.19865640997886658,0.23354822397232056],"type":"VEC2"},{"bufferView":0,"byteOffset":16944,"componentType":5125,"count":1008,"max":[495],"min":[0],"type":"SCALAR"},{"bufferView":2,"byteOffset":65592,"componentType":5126,"count":248,"max":[0.10030008107423782,0.16730332374572754,0.13116639852523804],"min":[-0.10030008107423782,0.021704435348510742,0.026693761348724365],"type":"VEC3"},{"bufferView":2,"byteOffset":68568,"componentType":5126,"count":248,"max":[1,1,1],"min":[-1,-1,-1],"type":"VEC3"},{"bufferView":3,"byteOffset":43728,"componentType":5126,"count":248,"max":[1,0,0,1],"min":[-1,0,0,-1],"type":"VEC4"},{"bufferView":1,"byteOffset":21864,"componentType":5126,"count":248,"max":[0.2826424837112427,0.4635027348995209],"min":[0.19865640997886658,0.23354822397232056],"type":"VEC2"},{"bufferView":0,"byteOffset":20976,"componentType":5125,"count":504,"max":[247],"min":[0],"type":"SCALAR"},{"bufferView":2,"byteOffset":71544,"componentType":5126,"count":372,"max":[0.10030008107423782,0.2805469036102295,0.13116639852523804],"min":[-0.10030008107423782,0.021704435348510742,0.026693761348724365],"type":"VEC3"},{"bufferView":2,"byteOffset":76008,"componentType":5126,"count":372,"max":[1,1,1],"min":[-1,-1,-1],"type":"VEC3"},{"bufferView":3,"byteOffset":47696,"componentType":5126,"count":372,"max":[1,0,0,1],"min":[-1,0,0,-1],"type":"VEC4"},{"bufferView":1,"byteOffset":23848,"componentType":5126,"count":372,"max":[0.2826424837112427,0.4635027348995209],"min":[0.19865640997886658,0.23354822397232056],"type":"VEC2"},{"bufferView":0,"byteOffset":22992,"componentType":5125,"count":756,"max":[371],"min":[0],"type":"SCALAR"},{"bufferView":2,"byteOffset":80472,"componentType":5126,"count":792,"max":[0.10030007362365723,-2.295867919921875,0.8626399040222168],"min":[-0.10030007362365723,-2.8944411277770996,0.7581672668457031],"type":"VEC3"},{"bufferView":2,"byteOffset":89976,"componentType":5126,"count":792,"max":[1,1,1],"min":[-1,-1,-1],"type":"VEC3"},{"bufferView":3,"byteOffset":53648,"componentType":5126,"count":792,"max":[1,0,0,1],"min":[-1,0,0,-1],"type":"VEC4"},{"bufferView":1,"byteOffset":26824,"componentType":5126,"count":792,"max":[0.2826424837112427,0.4635027348995209],"min":[0.19865640997886658,0.23354822397232056],"type":"VEC2"},{"bufferView":0,"byteOffset":26016,"componentType":5125,"count":1512,"max":[791],"min":[0],"type":"SCALAR"},{"bufferView":2,"byteOffset":99480,"componentType":5126,"count":2944,"max":[1.386362910270691,2.1897051334381104,0.7235063314437866],"min":[-1.386362910270691,-3.5027825832366943,-1.0770370960235596],"type":"VEC3"},{"bufferView":2,"byteOffset":134808,"componentType":5126,"count":2944,"max":[1,1,1],"min":[-1,-1,-1],"type":"VEC3"},{"bufferView":3,"byteOffset":66320,"componentType":5126,"count":2944,"max":[1,1,0.9963726997375488,1],"min":[-1,-1,-0.9963726997375488,-1],"type":"VEC4"},{"bufferView":1,"byteOffset":33160,"componentType":5126,"count":2944,"max":[0.3474314212799072,0.40601176023483276],"min":[0.26483434438705444,0.16132085025310516],"type":"VEC2"},{"bufferView":0,"byteOffset":32064,"componentType":5125,"count":5400,"max":[2943],"min":[0],"type":"SCALAR"},{"bufferView":2,"byteOffset":170136,"componentType":5126,"count":552,"max":[1.8100632429122925,2.515157699584961,0.06242777407169342],"min":[-1.8100632429122925,1.6294423341751099,-0.2111319899559021],"type":"VEC3"},{"bufferView":2,"byteOffset":176760,"componentType":5126,"count":552,"max":[1,0.9954606294631958,0.9921602010726929],"min":[-1,-0.9953075647354126,-0.9921083450317383],"type":"VEC3"},{"bufferView":3,"byteOffset":113424,"componentType":5126,"count":552,"max":[0.9944425225257874,0.9999092817306519,0.05214623734354973,1],"min":[-0.9944425225257874,-1,-0.9101758599281311,-1],"type":"VEC4"},{"bufferView":1,"byteOffset":56712,"componentType":5126,"count":552,"max":[0.3898925185203552,0.5699793696403503],"min":[0.21539121866226196,0.1512654423713684],"type":"VEC2"},{"bufferView":0,"byteOffset":53664,"componentType":5125,"count":828,"max":[551],"min":[0],"type":"SCALAR"},{"bufferView":2,"byteOffset":183384,"componentType":5126,"count":3311,"max":[1.8783587217330933,0.5733287334442139,0.9185166954994202],"min":[-1.8783587217330933,-0.8649098873138428,-1.6839118003845215],"type":"VEC3"},{"bufferView":2,"byteOffset":223116,"componentType":5126,"count":3311,"max":[1,1,1],"min":[-1,-1,-1],"type":"VEC3"},{"bufferView":3,"byteOffset":122256,"componentType":5126,"count":3311,"max":[0.9349724054336548,1,0.11360584199428558,1],"min":[-0.9349724054336548,-1,-1,-1],"type":"VEC4"},{"bufferView":1,"byteOffset":61128,"componentType":5126,"count":3311,"max":[0.7893320322036743,0.8497661352157593],"min":[0.1720617562532425,0.25134989619255066],"type":"VEC2"},{"bufferView":0,"byteOffset":56976,"componentType":5125,"count":7350,"max":[3310],"min":[0],"type":"SCALAR"},{"bufferView":2,"byteOffset":262848,"componentType":5126,"count":1600,"max":[0.7690638899803162,2.2881886959075928,0.6961799263954163],"min":[-0.7690638899803162,-0.5671424865722656,-0.04472382366657257],"type":"VEC3"},{"bufferView":2,"byteOffset":282048,"componentType":5126,"count":1600,"max":[0.9756852388381958,0.9987240433692932,0.9542391300201416],"min":[-0.9756852388381958,-0.9987821578979492,-0.9542389512062073],"type":"VEC3"},{"bufferView":3,"byteOffset":175232,"componentType":5126,"count":1600,"max":[0.9135339856147766,0.9991517663002014,0.20576533675193787,1],"min":[-0.9135339856147766,-0.9999589323997498,-0.7792977094650269,-1],"type":"VEC4"},{"bufferView":1,"byteOffset":87616,"componentType":5126,"count":1600,"max":[0.3726957440376282,0.45940276980400085],"min":[0.217219740152359,0.27290138602256775],"type":"VEC2"},{"bufferView":0,"byteOffset":86376,"componentType":5125,"count":4200,"max":[1599],"min":[0],"type":"SCALAR"},{"bufferView":2,"byteOffset":301248,"componentType":5126,"count":240,"max":[1.0404025316238403,-3.164144992828369,0.1785813271999359],"min":[-1.0404025316238403,-3.4680123329162598,-0.42141857743263245],"type":"VEC3"},{"bufferView":2,"byteOffset":304128,"componentType":5126,"count":240,"max":[1,1,1],"min":[-1,-1,-1],"type":"VEC3"},{"bufferView":3,"byteOffset":200832,"componentType":5126,"count":240,"max":[9.58537725637143e-7,1,0.7774994373321533,1],"min":[-9.58537725637143e-7,-1,0,1],"type":"VEC4"},{"bufferView":1,"byteOffset":100416,"componentType":5126,"count":240,"max":[0.8285357356071472,0.8285353183746338],"min":[0.17146429419517517,0.17146453261375427],"type":"VEC2"},{"bufferView":0,"byteOffset":103176,"componentType":5125,"count":360,"max":[239],"min":[0],"type":"SCALAR"},{"bufferView":2,"byteOffset":307008,"componentType":5126,"count":120,"max":[1.6809637546539307,0.826082706451416,0],"min":[-1.6809636354446411,-0.826082706451416,-0.03399999439716339],"type":"VEC3"},{"bufferView":2,"byteOffset":308448,"componentType":5126,"count":120,"max":[1,1,1],"min":[-1,-1,-1],"type":"VEC3"},{"bufferView":3,"byteOffset":204672,"componentType":5126,"count":120,"max":[1,0,0,1],"min":[0,0,0,-1],"type":"VEC4"},{"bufferView":1,"byteOffset":102336,"componentType":5126,"count":120,"max":[0.9999000430107117,0.9999000430107117],"min":[0.00009998001041822135,0.00009998001041822135],"type":"VEC2"},{"bufferView":0,"byteOffset":104616,"componentType":5125,"count":180,"max":[119],"min":[0],"type":"SCALAR"},{"bufferView":2,"byteOffset":309888,"componentType":5126,"count":1216,"max":[1.103414535522461,3.471806049346924,1.1034146547317505],"min":[-1.103414535522461,2.4898486137390137,-1.1034146547317505],"type":"VEC3"},{"bufferView":2,"byteOffset":324480,"componentType":5126,"count":1216,"max":[0.9995476603507996,1,0.9995476603507996],"min":[-0.9995476603507996,-1,-0.9995476603507996],"type":"VEC3"},{"bufferView":3,"byteOffset":206592,"componentType":5126,"count":1216,"max":[1,0.9913622140884399,0.999838650226593,1],"min":[-1,-0.9913609623908997,-0.999838650226593,-1],"type":"VEC4"},{"bufferView":1,"byteOffset":103296,"componentType":5126,"count":1216,"max":[0.28018128871917725,0.5007479190826416],"min":[0.18770234286785126,0.29061996936798096],"type":"VEC2"},{"bufferView":0,"byteOffset":105336,"componentType":5125,"count":4560,"max":[1215],"min":[0],"type":"SCALAR"},{"bufferView":2,"byteOffset":339072,"componentType":5126,"count":5600,"max":[1.4284906387329102,1.7107282876968384,-2.3980908393859863],"min":[-1.4284906387329102,-0.6697564125061035,-3.2138514518737793],"type":"VEC3"},{"bufferView":2,"byteOffset":406272,"componentType":5126,"count":5600,"max":[0.9992261528968811,0.9954111576080322,0.9947242140769958],"min":[-0.9992261528968811,-0.9954111576080322,-0.9947237372398376],"type":"VEC3"},{"bufferView":3,"byteOffset":226048,"componentType":5126,"count":5600,"max":[0.9991756081581116,0.9359000325202942,0.5675838589668274,1],"min":[-0.9991756677627563,-0.9661821126937866,-0.9303915500640869,-1],"type":"VEC4"},{"bufferView":1,"byteOffset":113024,"componentType":5126,"count":5600,"max":[0.7758731842041016,0.8001159429550171],"min":[0.20979198813438416,0.17250752449035645],"type":"VEC2"},{"bufferView":0,"byteOffset":123576,"componentType":5125,"count":21960,"max":[5599],"min":[0],"type":"SCALAR"},{"bufferView":2,"byteOffset":473472,"componentType":5126,"count":4784,"max":[2.6502604484558105,1.2672926187515259,0.8765025734901428],"min":[-2.6502604484558105,-1.2672926187515259,-1.1227407455444336],"type":"VEC3"},{"bufferView":2,"byteOffset":530880,"componentType":5126,"count":4784,"max":[1,1,1],"min":[-1,-1,-1],"type":"VEC3"},{"bufferView":3,"byteOffset":315648,"componentType":5126,"count":4784,"max":[0.9998619556427002,1,0.999691367149353,1],"min":[-0.9998619556427002,-1,-0.99916672706604,-1],"type":"VEC4"},{"bufferView":1,"byteOffset":157824,"componentType":5126,"count":4784,"max":[0.858010470867157,0.8051536679267883],"min":[0.16326957941055298,0.1030474305152893],"type":"VEC2"},{"bufferView":0,"byteOffset":211416,"componentType":5125,"count":13560,"max":[4783],"min":[0],"type":"SCALAR"},{"bufferView":2,"byteOffset":588288,"componentType":5126,"count":2304,"max":[0.8481428623199463,2.4898486137390137,0.8481427431106567],"min":[-0.8481428623199463,2.1322021484375,-0.8481427431106567],"type":"VEC3"},{"bufferView":2,"byteOffset":615936,"componentType":5126,"count":2304,"max":[1,1,1],"min":[-1,-1,-1],"type":"VEC3"},{"bufferView":3,"byteOffset":392192,"componentType":5126,"count":2304,"max":[1,0.9878969788551331,1,1],"min":[-1,-0.9999961853027344,-1,-1],"type":"VEC4"},{"bufferView":1,"byteOffset":196096,"componentType":5126,"count":2304,"max":[0.30089452862739563,0.4505119323730469],"min":[0,0],"type":"VEC2"},{"bufferView":0,"byteOffset":265656,"componentType":5125,"count":6720,"max":[2303],"min":[0],"type":"SCALAR"},{"bufferView":2,"byteOffset":643584,"componentType":5126,"count":10096,"max":[2.0774078369140625,2.132202386856079,1.8556303977966309],"min":[-2.0774078369140625,-6.45133638381958,-2.1250858306884766],"type":"VEC3"},{"bufferView":2,"byteOffset":764736,"componentType":5126,"count":10096,"max":[1,1,1],"min":[-1,-1,-1],"type":"VEC3"},{"bufferView":3,"byteOffset":429056,"componentType":5126,"count":10096,"max":[1,1,1,1],"min":[-1,-1,-1,-1],"type":"VEC4"},{"bufferView":1,"byteOffset":214528,"componentType":5126,"count":10096,"max":[0.9579266309738159,0.9726302027702332],"min":[-0.8839541077613831,0.053571756929159164],"type":"VEC2"},{"bufferView":0,"byteOffset":292536,"componentType":5125,"count":20208,"max":[10095],"min":[0],"type":"SCALAR"}],"asset":{"extras":{"author":"Lite (https://sketchfab.com/lite)","license":"CC-BY-4.0 (http://creativecommons.org/licenses/by/4.0/)","source":"https://sketchfab.com/models/cfde67c5818e4bdc97fc73721cabc8b9","title":"Sabertooth Racecraft"},"generator":"Sketchfab-3.18.5","version":"2.0"},"bufferViews":[{"buffer":0,"byteLength":373368,"byteOffset":0,"name":"floatBufferViews","target":34963},{"buffer":0,"byteLength":295296,"byteOffset":373368,"byteStride":8,"name":"floatBufferViews","target":34962},{"buffer":0,"byteLength":885888,"byteOffset":668664,"byteStride":12,"name":"floatBufferViews","target":34962},{"buffer":0,"byteLength":590592,"byteOffset":1554552,"byteStride":16,"name":"floatBufferViews","target":34962}],"buffers":[{"byteLength":2145144,"uri":"data:application/octet-stream;base64,"}],"images":[{"uri":"data:application/octet-stream;base64,"}],"materials":[{"doubleSided":true,"emissiveFactor":[0,0,0],"name":"Diffuse","pbrMetallicRoughness":{"baseColorFactor":[1,1,1,1],"baseColorTexture":{"index":0,"texCoord":0},"metallicFactor":0,"roughnessFactor":1}}],"meshes":[{"name":"Cylinder.004_Diffuse_0","primitives":[{"attributes":{"NORMAL":1,"POSITION":0,"TANGENT":2,"TEXCOORD_0":3},"indices":4,"material":0,"mode":4}]},{"name":"Cube.009_Diffuse_0","primitives":[{"attributes":{"NORMAL":6,"POSITION":5,"TANGENT":7,"TEXCOORD_0":8},"indices":9,"material":0,"mode":4}]},{"name":"Cube.008_Diffuse_0","primitives":[{"attributes":{"NORMAL":11,"POSITION":10,"TANGENT":12,"TEXCOORD_0":13},"indices":14,"material":0,"mode":4}]},{"name":"Cube.007_Diffuse_0","primitives":[{"attributes":{"NORMAL":16,"POSITION":15,"TANGENT":17,"TEXCOORD_0":18},"indices":19,"material":0,"mode":4}]},{"name":"Cube.006_Diffuse_0","primitives":[{"attributes":{"NORMAL":21,"POSITION":20,"TANGENT":22,"TEXCOORD_0":23},"indices":24,"material":0,"mode":4}]},{"name":"Cube.005_Diffuse_0","primitives":[{"attributes":{"NORMAL":26,"POSITION":25,"TANGENT":27,"TEXCOORD_0":28},"indices":29,"material":0,"mode":4}]},{"name":"Cube.004_Diffuse_0","primitives":[{"attributes":{"NORMAL":31,"POSITION":30,"TANGENT":32,"TEXCOORD_0":33},"indices":34,"material":0,"mode":4}]},{"name":"Cube.003_Diffuse_0","primitives":[{"attributes":{"NORMAL":36,"POSITION":35,"TANGENT":37,"TEXCOORD_0":38},"indices":39,"material":0,"mode":4}]},{"name":"BezierCurve.001_Diffuse_0","primitives":[{"attributes":{"NORMAL":41,"POSITION":40,"TANGENT":42,"TEXCOORD_0":43},"indices":44,"material":0,"mode":4}]},{"name":"Cube.002_Diffuse_0","primitives":[{"attributes":{"NORMAL":46,"POSITION":45,"TANGENT":47,"TEXCOORD_0":48},"indices":49,"material":0,"mode":4}]},{"name":"BezierCurve_Diffuse_0","primitives":[{"attributes":{"NORMAL":51,"POSITION":50,"TANGENT":52,"TEXCOORD_0":53},"indices":54,"material":0,"mode":4}]},{"name":"Cube.001_Diffuse_0","primitives":[{"attributes":{"NORMAL":56,"POSITION":55,"TANGENT":57,"TEXCOORD_0":58},"indices":59,"material":0,"mode":4}]},{"name":"Plane_Diffuse_0","primitives":[{"attributes":{"NORMAL":61,"POSITION":60,"TANGENT":62,"TEXCOORD_0":63},"indices":64,"material":0,"mode":4}]},{"name":"Cylinder.003_Diffuse_0","primitives":[{"attributes":{"NORMAL":66,"POSITION":65,"TANGENT":67,"TEXCOORD_0":68},"indices":69,"material":0,"mode":4}]},{"name":"Cylinder.002_Diffuse_0","primitives":[{"attributes":{"NORMAL":71,"POSITION":70,"TANGENT":72,"TEXCOORD_0":73},"indices":74,"material":0,"mode":4}]},{"name":"Cylinder.001_Diffuse_0","primitives":[{"attributes":{"NORMAL":76,"POSITION":75,"TANGENT":77,"TEXCOORD_0":78},"indices":79,"material":0,"mode":4}]},{"name":"Cylinder_Diffuse_0","primitives":[{"attributes":{"NORMAL":81,"POSITION":80,"TANGENT":82,"TEXCOORD_0":83},"indices":84,"material":0,"mode":4}]},{"name":"Cube_Diffuse_0","primitives":[{"attributes":{"NORMAL":86,"POSITION":85,"TANGENT":87,"TEXCOORD_0":88},"indices":89,"material":0,"mode":4}]}],"nodes":[{"children":[1],"name":"RootNode (gltf orientation matrix)","rotation":[-0.7071067811865475,0,0,0.7071067811865476]},{"children":[2],"name":"RootNode (model correction matrix)"},{"children":[3],"matrix":[1,0,0,0,0,0,1,0,0,-1,0,0,0,0,0,1],"name":"Racecraft6.fbx"},{"children":[4,6,8,10,12,14,16,18,20,22,24,26,28,30,32,34,36,38,40],"name":"RootNode"},{"children":[5],"matrix":[97.86248869813947,20.56534234595973,-1.3877787807814457e-15,0,0.0000033505195506933205,-0.000015943823150621483,-99.99999999999866,0,-20.565342345959458,97.86248869813816,-0.000016292067961387602,0,0,0,-15.361059188842773,1],"name":"Cylinder.004"},{"mesh":0,"name":"Cylinder.004_Diffuse_0"},{"children":[7],"matrix":[100,0,0,0,0,-0.00001629206793918314,-99.99999999999868,0,0,99.99999999999868,-0.00001629206793918314,0,1.0800046368331095e-7,99.12813568115234,97.17410278320312,1],"name":"Cube.009"},{"mesh":1,"name":"Cube.009_Diffuse_0"},{"children":[9],"matrix":[100,1.0293820181594714e-15,-2.387363706004741e-17,0,-3.794340077596319e-17,1.3670332588474055,-99.99065566376292,0,-1.028959468683823e-15,99.99065566376292,1.3670332588474055,0,1.0800046368331095e-7,99.12813568115234,97.17410278320312,1],"name":"Cube.008"},{"mesh":2,"name":"Cube.008_Diffuse_0"},{"children":[11],"matrix":[100,-2.5201974766087894e-15,-1.4348447579297674e-16,0,2.9446370964545744e-16,17.291770497847192,-98.49361982976833,0,2.5070447278246357e-15,98.49361982976833,17.291770497847192,0,2.103636188854896e-11,91.06473541259766,142.50283813476562,1],"name":"Cube.007"},{"mesh":3,"name":"Cube.007_Diffuse_0"},{"children":[13],"matrix":[100,-6.377015921835068e-15,-9.354272045910036e-16,0,1.3164298945407268e-15,34.41598513606162,-93.89110696500701,0,6.309387328036409e-15,93.89110696500701,34.41598513606162,0,2.1034462366342765e-11,82.50981140136719,164.94561767578125,1],"name":"Cube.006"},{"mesh":4,"name":"Cube.006_Diffuse_0"},{"children":[15],"matrix":[100,0,0,0,0,6.001054703823105,-99.8197666625347,0,0,99.8197666625347,6.001054703823105,0,2.1032441413493252e-11,73.39936828613281,207.81703186035156,1],"name":"Cube.005"},{"mesh":5,"name":"Cube.005_Diffuse_0"},{"children":[17],"matrix":[100,0,0,0,0,-0.00001629206793918314,-99.99999999999868,0,0,99.99999999999868,-0.00001629206793918314,0,0,0,0,1],"name":"Cube.004"},{"mesh":6,"name":"Cube.004_Diffuse_0"},{"children":[19],"matrix":[100,0,0,0,0,-0.00001629206793918314,-99.99999999999868,0,0,99.99999999999868,-0.00001629206793918314,0,0,0,0,1],"name":"Cube.003"},{"mesh":7,"name":"Cube.003_Diffuse_0"},{"children":[21],"matrix":[100,0,0,0,0,-0.00001629206793918314,-99.99999999999868,0,0,99.99999999999868,-0.00001629206793918314,0,0.000011920928955078125,0,-0.000011920928955078125,1],"name":"BezierCurve.001"},{"mesh":8,"name":"BezierCurve.001_Diffuse_0"},{"children":[23],"matrix":[100,0,0,0,0,-0.00001629206793918314,-99.99999999999868,0,0,99.99999999999868,-0.00001629206793918314,0,0,0,-213.22024536132812,1],"name":"Cube.002"},{"mesh":9,"name":"Cube.002_Diffuse_0"},{"children":[25],"matrix":[100,0,0,0,0,-0.00001629206793918314,-99.99999999999868,0,0,99.99999999999868,-0.00001629206793918314,0,0,-196.03042602539062,0,1],"name":"BezierCurve"},{"mesh":10,"name":"BezierCurve_Diffuse_0"},{"children":[27],"matrix":[100,0,0,0,0,-0.00001629206793918314,-99.99999999999868,0,0,99.99999999999868,-0.00001629206793918314,0,0,0,0,1],"name":"Cube.001"},{"mesh":11,"name":"Cube.001_Diffuse_0"},{"children":[29],"matrix":[43.621286013698565,-8.061239080358787e-7,-17.51231411686219,0,-14.582006637029766,26.02998426051411,-36.322207271193655,0,9.697743457385904,39.139975199454746,24.156031388399498,0,291.9316711425781,-180.44866943359375,371.8039855957031,1],"name":"Plane"},{"mesh":12,"name":"Plane_Diffuse_0"},{"children":[31],"matrix":[100,0,0,0,0,-0.00001629206793918314,-99.99999999999868,0,0,99.99999999999868,-0.00001629206793918314,0,0,0,0,1],"name":"Cylinder.003"},{"mesh":13,"name":"Cylinder.003_Diffuse_0"},{"children":[33],"matrix":[100,0,0,0,0,-0.00001629206793918314,-99.99999999999868,0,0,99.99999999999868,-0.00001629206793918314,0,0,156.87879943847656,0,1],"name":"Cylinder.002"},{"mesh":14,"name":"Cylinder.002_Diffuse_0"},{"children":[35],"matrix":[100,0,0,0,0,-0.00001629206793918314,-99.99999999999868,0,0,99.99999999999868,-0.00001629206793918314,0,0,0,0,1],"name":"Cylinder.001"},{"mesh":15,"name":"Cylinder.001_Diffuse_0"},{"children":[37],"matrix":[100,0,0,0,0,-0.00001629206793918314,-99.99999999999868,0,0,99.99999999999868,-0.00001629206793918314,0,0,0,0,1],"name":"Cylinder"},{"mesh":16,"name":"Cylinder_Diffuse_0"},{"children":[39],"matrix":[100,0,0,0,0,-0.00001629206793918314,-99.99999999999868,0,0,99.99999999999868,-0.00001629206793918314,0,0,0,0,1],"name":"Cube"},{"mesh":17,"name":"Cube_Diffuse_0"},{"children":[41],"matrix":[0.000019470718870540082,0,-99.99999999999811,0,2.512148102658649e-13,100,4.8913329480407724e-20,0,99.99999999999811,-2.5121481026586963e-13,0.000019470718870540082,0,0,0,1000,1],"name":"Camera"},{"name":""}],"samplers":[{"magFilter":9729,"minFilter":9987,"wrapS":10497,"wrapT":10497}],"scene":0,"scenes":[{"name":"OSG_Scene","nodes":[0]}],"textures":[{"sampler":0,"source":0}]}